<?xml version="1.0" encoding="UTF-8" standalone="no"?>
<svg
   xmlns:dc="http://purl.org/dc/elements/1.1/"
   xmlns:cc="http://creativecommons.org/ns#"
   xmlns:rdf="http://www.w3.org/1999/02/22-rdf-syntax-ns#"
   xmlns:svg="http://www.w3.org/2000/svg"
   xmlns="http://www.w3.org/2000/svg"
   version="1.1"
   viewBox="0 0 577.71 500.31"
   data-name="Ebene 1"
   id="Ebene_1">
  <metadata
     id="metadata935">
    <rdf:RDF>
      <cc:Work
         rdf:about="">
        <dc:format>image/svg+xml</dc:format>
        <dc:type
           rdf:resource="http://purl.org/dc/dcmitype/StillImage" />
        <dc:title></dc:title>
      </cc:Work>
    </rdf:RDF>
  </metadata>
  <defs
     id="defs916">
    <style
       id="style914">.cls-1{fill:#fff;}.cls-2{font-size:46.06px;font-family:Lato-Bold, Lato;font-weight:700;letter-spacing:0.02em;}.cls-2,.cls-3{fill:#4a6fae;}</style>
  </defs>
  <g
     id="text920"
     style="font-weight:700;font-size:46.06000137px;font-family:Lato-Bold, Lato;letter-spacing:0.02em;fill:#4a6fae"
     transform="translate(152.85 447.47)"
     aria-label="QFieldCloud">
    <path
       id="path2432"
       style="font-weight:700;font-size:46.06000137px;font-family:Lato-Bold, Lato;letter-spacing:0.02em;fill:#4a6fae"
       d="m 35.304991,-16.65069 q 0,2.23391 -0.4606,4.28358 -0.4606,2.02664 -1.33574,3.7999497 -0.85211,1.7733101 -2.09573,3.2702601 -1.24362,1.4739201 -2.83269,2.6023901 l 8.45201,9.2120003 h -5.11266 q -1.10544,0 -2.00361,-0.29939 -0.87514,-0.29939 -1.6121,-1.10544 l -4.88236,-5.38902021 q -1.17453,0.32242001 -2.41815,0.48363002 -1.22059,0.16121 -2.55633,0.16121 -3.776921,0 -6.909001,-1.26665004 Q 8.4289803,-2.1878501 6.1950702,-4.4678201 3.9841901,-6.7477902 2.7636001,-9.8568403 1.54301,-12.98892 1.54301,-16.65069 q 0,-3.661771 1.2205901,-6.770821 1.22059,-3.13208 3.4314701,-5.41205 2.2339101,-2.27997 5.3429598,-3.54662 3.13208,-1.28968 6.909001,-1.28968 3.77692,0 6.88597,1.28968 3.10905,1.28968 5.31993,3.56965 2.21088,2.25694 3.43147,5.38902 1.22059,3.10905 1.22059,6.770821 z m -6.35628,0 q 0,-2.740571 -0.73696,-4.905391 -0.71393,-2.18785 -2.0727,-3.70783 -1.35877,-1.51998 -3.31632,-2.32603 -1.93452,-0.80605 -4.3757,-0.80605 -2.441181,0 -4.398731,0.80605 -1.95755,0.80605 -3.33935,2.32603 -1.3587697,1.51998 -2.0957297,3.70783 -0.7369601,2.16482 -0.7369601,4.905391 0,2.74057 0.7369601,4.92842 0.73696,2.1648197 2.0957297,3.6847998 1.3818,1.49695 3.33935,2.303 1.95755,0.8060501 4.398731,0.8060501 2.44118,0 4.3757,-0.8060501 1.95755,-0.80605 3.31632,-2.303 1.35877,-1.5199801 2.0727,-3.6847998 0.73696,-2.18785 0.73696,-4.92842 z" />
    <path
       id="path2434"
       style="font-weight:700;font-size:46.06000137px;font-family:Lato-Bold, Lato;letter-spacing:0.02em;fill:#4a6fae"
       d="m 62.111888,-33.301381 v 4.92842 H 47.349657 v 9.85684 h 12.459231 v 4.951451 H 47.349657 V 0 h -6.24113 v -33.301381 z" />
    <path
       id="path2436"
       style="font-weight:700;font-size:46.06000137px;font-family:Lato-Bold, Lato;letter-spacing:0.02em;fill:#4a6fae"
       d="M 73.626826,-23.628781 V 0 h -5.68841 v -23.628781 z m 0.85211,-6.88597 q 0,0.73696 -0.29939,1.3818 -0.29939,0.64484 -0.80605,1.12847 -0.48363,0.48363 -1.1515,0.78302 -0.66787,0.27636 -1.42786,0.27636 -0.73696,0 -1.40483,-0.27636 -0.64484,-0.29939 -1.12847,-0.78302 -0.48363,-0.48363 -0.78302,-1.12847 -0.27636,-0.64484 -0.27636,-1.3818 0,-0.75999 0.27636,-1.42786 0.29939,-0.66787 0.78302,-1.1515 0.48363,-0.48363 1.12847,-0.75999 0.66787,-0.29939 1.40483,-0.29939 0.75999,0 1.42786,0.29939 0.66787,0.27636 1.1515,0.75999 0.50666,0.48363 0.80605,1.1515 0.29939,0.66787 0.29939,1.42786 z" />
    <path
       id="path2438"
       style="font-weight:700;font-size:46.06000137px;font-family:Lato-Bold, Lato;letter-spacing:0.02em;fill:#4a6fae"
       d="m 90.738114,-23.997261 q 2.23391,0 4.09934,0.71393 1.88846,0.71393 3.24723,2.09573 1.35877,1.35877 2.118756,3.36238 0.75999,1.980581 0.75999,4.536911 0,0.64484 -0.0691,1.08241 -0.0461,0.41454 -0.20727,0.66787 -0.13818,0.2303 -0.39151,0.34545 -0.25333,0.09212 -0.644836,0.09212 h -14.60102 q 0.25333,3.6387398 1.95755,5.3429598 1.70422,1.7042201 4.51388,1.7042201 1.3818,0 2.37209,-0.32242 1.01332,-0.32242 1.75028,-0.7139301 0.75999,-0.39151 1.31271,-0.71393 0.57575,-0.32242 1.10544,-0.32242 0.34545,0 0.59878,0.13818 0.25333,0.13818 0.43757,0.39151 l 1.658156,2.0727001 q -0.944226,1.10544 -2.118756,1.8654301 -1.17453,0.73695997 -2.46421,1.19755999 -1.26665,0.43757001 -2.60239,0.62181001 -1.31271,0.18424001 -2.55633,0.18424001 -2.46421,0 -4.58297,-0.80605002 -2.11876,-0.82907999 -3.6848,-2.41815009 -1.56604,-1.6121 -2.46421,-3.9611601 -0.89817,-2.3720901 -0.89817,-5.4811398 0,-2.41815 0.78302,-4.536911 0.78302,-2.14179 2.23391,-3.70783 1.47392,-1.58907 3.56965,-2.51027 2.11876,-0.9212 4.76721,-0.9212 z m 0.11515,4.07631 q -2.48724,0 -3.89207,1.40483 -1.40483,1.40483 -1.79634,3.984191 h 10.68592 q 0,-1.10544 -0.29939,-2.0727 -0.29939,-0.990291 -0.9212,-1.727251 -0.62181,-0.73696 -1.56604,-1.1515 -0.94423,-0.43757 -2.21088,-0.43757 z" />
    <path
       id="path2440"
       style="font-weight:700;font-size:46.06000137px;font-family:Lato-Bold, Lato;letter-spacing:0.02em;fill:#4a6fae"
       d="M 112.57047,-34.222581 V 0 h -5.68841 v -34.222581 z" />
    <path
       id="path2442"
       style="font-weight:700;font-size:46.06000137px;font-family:Lato-Bold, Lato;letter-spacing:0.02em;fill:#4a6fae"
       d="m 136.5447,0 q -1.10544,0 -1.45089,-1.03635 l -0.4606,-2.2799701 q -0.73696,0.82908 -1.54301,1.49695 -0.80605,0.6678701 -1.75028,1.15150008 -0.9212,0.48363001 -2.00361,0.73696002 -1.05938,0.27636001 -2.303,0.27636001 -1.93452,0 -3.54662,-0.80605002 -1.6121,-0.80604999 -2.78663,-2.32603009 -1.1515,-1.54301 -1.79634,-3.7999501 -0.62181,-2.2569401 -0.62181,-5.1587198 0,-2.62542 0.71393,-4.88236 0.71393,-2.256941 2.04967,-3.915101 1.33574,-1.65816 3.20117,-2.57936 1.86543,-0.94423 4.19146,-0.94423 1.98058,0 3.38541,0.64484 1.40483,0.62181 2.51027,1.68119 v -12.48226 h 5.68841 V 0 Z m -7.57687,-4.1684301 q 1.77331,0 3.01693,-0.73696 1.24362,-0.7369601 2.34906,-2.0957301 V -17.594921 q -0.96726,-1.17453 -2.11876,-1.65816 -1.12847,-0.48363 -2.44118,-0.48363 -1.28968,0 -2.34906,0.48363 -1.03635,0.48363 -1.77331,1.47392 -0.71393,0.96726 -1.10544,2.487241 -0.39151,1.49695 -0.39151,3.54662 0,2.0726997 0.32242,3.5235898 0.34545,1.42786 0.96726,2.34906 0.62181,0.8981701 1.51998,1.3127101 0.89817,0.39151 2.00361,0.39151 z" />
    <path
       id="path2444"
       style="font-weight:700;font-size:46.06000137px;font-family:Lato-Bold, Lato;letter-spacing:0.02em;fill:#4a6fae"
       d="m 170.30666,-7.8532302 q 0.50666,0 0.87514,0.39151 l 2.44118,2.6484501 q -2.02664,2.51027 -4.99751,3.84601007 -2.94784,1.33574004 -7.09324,1.33574004 -3.70783,0 -6.6787,-1.26665004 -2.94784,-1.26665007 -5.04357,-3.52359007 -2.09573,-2.2569401 -3.2242,-5.3890202 -1.10544,-3.1320797 -1.10544,-6.8399097 0,-3.753891 1.24362,-6.862941 1.24362,-3.13208 3.50056,-5.38902 2.25694,-2.25694 5.38902,-3.50056 3.15511,-1.26665 6.95506,-1.26665 3.70783,0 6.47143,1.19756 2.78663,1.17453 4.76721,3.13208 l -2.0727,2.87875 q -0.18424,0.27636 -0.48363,0.48363 -0.27636,0.20727 -0.78302,0.20727 -0.52969,0 -1.08241,-0.41454 -0.55272,-0.41454 -1.40483,-0.89817 -0.85211,-0.48363 -2.16482,-0.89817 -1.28968,-0.41454 -3.29329,-0.41454 -2.34906,0 -4.32964,0.82908 -1.95755,0.80605 -3.38541,2.32603 -1.40483,1.51998 -2.21088,3.70783 -0.78302,2.16482 -0.78302,4.882361 0,2.80966 0.78302,4.99751 0.80605,2.1878497 2.16482,3.6847998 1.35877,1.49695 3.20117,2.303 1.8424,0.7830201 3.96116,0.7830201 1.26665,0 2.27997,-0.13818 1.03635,-0.1381801 1.88846,-0.4375701 0.87514,-0.29939 1.63513,-0.75999 0.78302,-0.48363 1.54301,-1.17453 0.2303,-0.20727 0.48363,-0.32242 0.25333,-0.13818 0.55272,-0.13818 z" />
    <path
       id="path2446"
       style="font-weight:700;font-size:46.06000137px;font-family:Lato-Bold, Lato;letter-spacing:0.02em;fill:#4a6fae"
       d="M 184.95374,-34.222581 V 0 h -5.68841 v -34.222581 z" />
    <path
       id="path2448"
       style="font-weight:700;font-size:46.06000137px;font-family:Lato-Bold, Lato;letter-spacing:0.02em;fill:#4a6fae"
       d="m 202.38745,-23.997261 q 2.64845,0 4.79024,0.85211 2.16482,0.85211 3.6848,2.41815 1.51998,1.56604 2.34906,3.82298 0.82908,2.256941 0.82908,5.043571 0,2.8096597 -0.82908,5.0665998 -0.82908,2.2569401 -2.34906,3.8460101 -1.51998,1.5890701 -3.6848,2.44118008 -2.14179,0.85211003 -4.79024,0.85211003 -2.64845,0 -4.81327,-0.85211003 -2.16482,-0.85210998 -3.70783,-2.44118008 -1.51998,-1.58907 -2.37209,-3.8460101 -0.82908,-2.2569401 -0.82908,-5.0665998 0,-2.78663 0.82908,-5.043571 0.85211,-2.25694 2.37209,-3.82298 1.54301,-1.56604 3.70783,-2.41815 2.16482,-0.85211 4.81327,-0.85211 z m 0,19.9670109 q 2.94784,0 4.35267,-1.9805801 1.42786,-1.98058 1.42786,-5.8035598 0,-3.82298 -1.42786,-5.826591 -1.40483,-2.00361 -4.35267,-2.00361 -2.9939,0 -4.42176,2.02664 -1.42786,2.003611 -1.42786,5.803561 0,3.7999498 1.42786,5.8035598 1.42786,1.9805801 4.42176,1.9805801 z" />
    <path
       id="path2450"
       style="font-weight:700;font-size:46.06000137px;font-family:Lato-Bold, Lato;letter-spacing:0.02em;fill:#4a6fae"
       d="m 224.61133,-23.628781 v 15.0155607 q 0,2.1648201 0.99029,3.3623801 1.01332,1.1745301 3.01693,1.1745301 1.47392,0 2.7636,-0.64484 1.28968,-0.6678701 2.44118,-1.8193701 V -23.628781 h 5.68841 V 0 h -3.47753 q -1.10544,0 -1.45089,-1.03635 l -0.39151,-1.8884601 q -0.73696,0.73696 -1.51998,1.3587701 -0.78302,0.59877997 -1.68119,1.03634998 -0.87514,0.41454002 -1.91149,0.64484002 -1.01332,0.25333001 -2.18785,0.25333001 -1.93452,0 -3.43147,-0.64484002 -1.47392,-0.66787002 -2.48724,-1.86543009 -1.01332,-1.19756 -1.54301,-2.83269 -0.50666,-1.6581601 -0.50666,-3.6387402 V -23.628781 Z" />
    <path
       id="path2452"
       style="font-weight:700;font-size:46.06000137px;font-family:Lato-Bold, Lato;letter-spacing:0.02em;fill:#4a6fae"
       d="m 263.14046,0 q -1.10544,0 -1.45089,-1.03635 l -0.4606,-2.2799701 q -0.73696,0.82908 -1.54301,1.49695 -0.80605,0.6678701 -1.75028,1.15150008 -0.9212,0.48363001 -2.00361,0.73696002 -1.05938,0.27636001 -2.303,0.27636001 -1.93452,0 -3.54662,-0.80605002 -1.6121,-0.80604999 -2.78663,-2.32603009 -1.1515,-1.54301 -1.79634,-3.7999501 -0.62181,-2.2569401 -0.62181,-5.1587198 0,-2.62542 0.71393,-4.88236 0.71393,-2.256941 2.04967,-3.915101 1.33574,-1.65816 3.20117,-2.57936 1.86543,-0.94423 4.19146,-0.94423 1.98058,0 3.38541,0.64484 1.40483,0.62181 2.51027,1.68119 v -12.48226 h 5.68841 V 0 Z m -7.57687,-4.1684301 q 1.77331,0 3.01693,-0.73696 1.24362,-0.7369601 2.34906,-2.0957301 V -17.594921 q -0.96726,-1.17453 -2.11876,-1.65816 -1.12847,-0.48363 -2.44118,-0.48363 -1.28968,0 -2.34906,0.48363 -1.03635,0.48363 -1.77331,1.47392 -0.71393,0.96726 -1.10544,2.487241 -0.39151,1.49695 -0.39151,3.54662 0,2.0726997 0.32242,3.5235898 0.34545,1.42786 0.96726,2.34906 0.62181,0.8981701 1.51998,1.3127101 0.89817,0.39151 2.00361,0.39151 z" />
  </g>
  <path
     id="path922"
     transform="translate(-11.68 -52.69)"
     d="M291.36,249.43a11.92,11.92,0,1,0-11.91,11.91A11.92,11.92,0,0,0,291.36,249.43Z"
     class="cls-3" />
  <path
     id="path924"
     transform="translate(-11.68 -52.69)"
     d="M310.67,249.43a11.92,11.92,0,1,0,11.92-11.92A11.92,11.92,0,0,0,310.67,249.43Z"
     class="cls-3" />
  <path
     id="path926"
     transform="translate(-11.68 -52.69)"
     d="M213.49,293.66a94.53,94.53,0,0,0,14.4,24.52,95.82,95.82,0,0,0,72.67,34,98.34,98.34,0,0,0,68.63-28.38,94.44,94.44,0,0,0,21.65-36.62,3.2,3.2,0,0,0-4.62-3.75,53.57,53.57,0,1,1-37.37-99.1,3.2,3.2,0,0,0,1-5.86,93.5,93.5,0,0,0-29.22-11.58c-3-13.37-7.53-21.21-11.6-28.12a270.52,270.52,0,0,0-15.44-22.3,19.34,19.34,0,0,0-8.47-8.23c-8-4.12-17.1-2.52-20.23,3.58s.85,14.39,8.89,18.52c.47.24.94.46,1.42.66h0a20.41,20.41,0,0,0,5.52,1.48,37.81,37.81,0,0,1,13,7.71C298,144.15,306,157.9,307,165.05c-2-.12-4-.19-6-.19q-4.23,0-8.41.38c-8-10.49-14.87-17.78-21.31-23.15-7-5.81-16.45-12.32-19.9-14h0a19.68,19.68,0,0,0-10.4-2.83c-9,0-16.36,5.56-16.36,12.42S232,150.11,241,150.11a22,22,0,0,0,3.94-.37h0l.06,0a19,19,0,0,0,3.8-1.11,18.56,18.56,0,0,1,8.56,0c5.64,1.55,22.23,13.7,20.8,19.08a93.75,93.75,0,0,0-26,10.83,3.2,3.2,0,0,0,1,5.86,53.56,53.56,0,1,1-37.36,99.1,3.2,3.2,0,0,0-4.76,2.58Q212.1,289.92,213.49,293.66Z"
     class="cls-3" />
  <path
     id="path928"
     transform="translate(-11.68 -52.69)"
     d="M353.21,422.41c-.92-.15-5.66-.27-5.66-.27-7.7-.93-10-19.08-10.58-25.61a59.64,59.64,0,0,0,11.82-12.24,113.56,113.56,0,0,1-95.09.63,59.55,59.55,0,0,0,11.37,11.61c-.58,6.53-2.89,24.68-10.59,25.61,0,0-4.74.12-5.65.27-4.55,1-7.83,4-7.83,7.53,0,4.39,5.11,7.95,11.42,7.95,0,0,13.77,1.17,16.76-1.35s4.55-4.73,4-15.87S282.68,406.49,283,406c5.68,1.83,11.73,15.63,18,15.63s12.33-13.8,18-15.63c.33.5,10.43,3.54,9.85,14.68s1,13.35,4,15.87,16.77,1.35,16.77,1.35c6.3,0,11.41-3.56,11.41-7.95C361,426.43,357.75,423.45,353.21,422.41Z"
     class="cls-3" />
  <path
     id="path930"
     transform="translate(-11.68 -52.69)"
     d="M376.8,362.16h0l-.05,0a3.65,3.65,0,0,0-.54-.32c-8.18-5-12.43-10.24-14.63-14.15a100.89,100.89,0,0,1-121.43.47c-2.27,3.86-6.5,8.9-14.36,13.68a5.09,5.09,0,0,0-.54.32l-.05,0h0a8.71,8.71,0,1,0,13.08,9.6c.76-2.33,1.71-5.55,3.08-8.78l2.33,1.35c15.94,10,38.13,16.71,56.87,16.71,19.93,0,41.66-7,58.09-18.08l1.43-1.23a88,88,0,0,1,3.65,10,8.71,8.71,0,1,0,13.07-9.6Z"
     class="cls-3" />
</svg>
