<?xml version="1.0" encoding="UTF-8" standalone="no"?>
<svg
   xmlns:dc="http://purl.org/dc/elements/1.1/"
   xmlns:cc="http://creativecommons.org/ns#"
   xmlns:rdf="http://www.w3.org/1999/02/22-rdf-syntax-ns#"
   xmlns:svg="http://www.w3.org/2000/svg"
   xmlns="http://www.w3.org/2000/svg"
   height="400.72369"
   width="265.07498"
   version="1.1"
   viewBox="0 0 265.07497 400.7237"
   data-name="Ebene 1"
   id="Ebene_1">
  <metadata
     id="metadata935">
    <rdf:RDF>
      <cc:Work
         rdf:about="">
        <dc:format>image/svg+xml</dc:format>
        <dc:type
           rdf:resource="http://purl.org/dc/dcmitype/StillImage" />
        <dc:title></dc:title>
      </cc:Work>
    </rdf:RDF>
  </metadata>
  <defs
     id="defs916">
    <style
       id="style914">.cls-1{fill:#fff;}.cls-2{font-size:46.06px;font-family:Lato-Bold, Lato;font-weight:700;letter-spacing:0.02em;}.cls-2,.cls-3{fill:#4a6fae;}</style>
  </defs>
  <g
     transform="translate(0.75099392)"
     id="text920"
     style="font-weight:700;font-size:46.06000137px;font-family:Lato-Bold, Lato;letter-spacing:0.02em;fill:#4a6fae"
     aria-label="QFieldCloud">
    <path
       id="path1624"
       style="font-weight:700;font-size:46.06000137px;font-family:Lato-Bold, Lato;letter-spacing:0.02em;fill:#4a6fae"
       d="m 33.010987,377.55552 q 0,2.23391 -0.4606,4.28358 -0.4606,2.02664 -1.33574,3.79995 -0.85211,1.77331 -2.09573,3.27026 -1.24362,1.47392 -2.83269,2.60239 l 8.45201,9.212 h -5.11266 q -1.10544,0 -2.00361,-0.29939 -0.87514,-0.29939 -1.6121,-1.10544 l -4.88236,-5.38902 q -1.17453,0.32242 -2.41815,0.48363 -1.22059,0.16121 -2.55633,0.16121 -3.776921,0 -6.9090006,-1.26665 -3.1090501,-1.28968 -5.3429602,-3.56965 -2.21088,-2.27997 -3.43147008,-5.38902 -1.22059004,-3.13208 -1.22059004,-6.79385 0,-3.66177 1.22059004,-6.77082 1.22059008,-3.13208 3.43147008,-5.41205 2.2339101,-2.27997 5.3429602,-3.54662 3.1320796,-1.28968 6.9090006,-1.28968 3.77692,0 6.88597,1.28968 3.10905,1.28968 5.31993,3.56965 2.21088,2.25694 3.43147,5.38902 1.22059,3.10905 1.22059,6.77082 z m -6.35628,0 q 0,-2.74057 -0.73696,-4.90539 -0.71393,-2.18785 -2.0727,-3.70783 -1.35877,-1.51998 -3.31632,-2.32603 -1.93452,-0.80605 -4.3757,-0.80605 -2.44118,0 -4.398731,0.80605 -1.9575496,0.80605 -3.3393496,2.32603 -1.3587701,1.51998 -2.0957301,3.70783 -0.73696,2.16482 -0.73696,4.90539 0,2.74057 0.73696,4.92842 0.73696,2.16482 2.0957301,3.6848 1.3818,1.49695 3.3393496,2.303 1.957551,0.80605 4.398731,0.80605 2.44118,0 4.3757,-0.80605 1.95755,-0.80605 3.31632,-2.303 1.35877,-1.51998 2.0727,-3.6848 0.73696,-2.18785 0.73696,-4.92842 z" />
    <path
       id="path1626"
       style="font-weight:700;font-size:46.06000137px;font-family:Lato-Bold, Lato;letter-spacing:0.02em;fill:#4a6fae"
       d="m 59.817884,360.90483 v 4.92842 H 45.055653 v 9.85684 h 12.459231 v 4.95145 H 45.055653 v 13.56467 h -6.24113 v -33.30138 z" />
    <path
       id="path1628"
       style="font-weight:700;font-size:46.06000137px;font-family:Lato-Bold, Lato;letter-spacing:0.02em;fill:#4a6fae"
       d="m 71.332822,370.57743 v 23.62878 h -5.68841 v -23.62878 z m 0.85211,-6.88597 q 0,0.73696 -0.29939,1.3818 -0.29939,0.64484 -0.80605,1.12847 -0.48363,0.48363 -1.1515,0.78302 -0.66787,0.27636 -1.42786,0.27636 -0.73696,0 -1.40483,-0.27636 -0.64484,-0.29939 -1.12847,-0.78302 -0.48363,-0.48363 -0.78302,-1.12847 -0.27636,-0.64484 -0.27636,-1.3818 0,-0.75999 0.27636,-1.42786 0.29939,-0.66787 0.78302,-1.1515 0.48363,-0.48363 1.12847,-0.75999 0.66787,-0.29939 1.40483,-0.29939 0.75999,0 1.42786,0.29939 0.66787,0.27636 1.1515,0.75999 0.50666,0.48363 0.80605,1.1515 0.29939,0.66787 0.29939,1.42786 z" />
    <path
       id="path1630"
       style="font-weight:700;font-size:46.06000137px;font-family:Lato-Bold, Lato;letter-spacing:0.02em;fill:#4a6fae"
       d="m 88.44411,370.20895 q 2.23391,0 4.09934,0.71393 1.88846,0.71393 3.24723,2.09573 1.35877,1.35877 2.11876,3.36238 0.75999,1.98058 0.75999,4.53691 0,0.64484 -0.06909,1.08241 -0.04606,0.41454 -0.20727,0.66787 -0.13818,0.2303 -0.39151,0.34545 -0.25333,0.0921 -0.64484,0.0921 H 82.7557 q 0.25333,3.63874 1.95755,5.34296 1.70422,1.70422 4.51388,1.70422 1.3818,0 2.37209,-0.32242 1.01332,-0.32242 1.75028,-0.71393 0.75999,-0.39151 1.31271,-0.71393 0.57575,-0.32242 1.10544,-0.32242 0.34545,0 0.59878,0.13818 0.25333,0.13818 0.43757,0.39151 l 1.65816,2.0727 q -0.94423,1.10544 -2.11876,1.86543 -1.17453,0.73696 -2.46421,1.19756 -1.26665,0.43757 -2.60239,0.62181 -1.31271,0.18424 -2.55633,0.18424 -2.46421,0 -4.58297,-0.80605 -2.11876,-0.82908 -3.6848,-2.41815 -1.56604,-1.6121 -2.46421,-3.96116 -0.89817,-2.37209 -0.89817,-5.48114 0,-2.41815 0.78302,-4.53691 0.78302,-2.14179 2.23391,-3.70783 1.47392,-1.58907 3.56965,-2.51027 2.11876,-0.9212 4.76721,-0.9212 z m 0.11515,4.07631 q -2.48724,0 -3.89207,1.40483 -1.40483,1.40483 -1.79634,3.98419 h 10.68592 q 0,-1.10544 -0.29939,-2.0727 -0.29939,-0.99029 -0.9212,-1.72725 -0.62181,-0.73696 -1.56604,-1.1515 -0.94423,-0.43757 -2.21088,-0.43757 z" />
    <path
       id="path1632"
       style="font-weight:700;font-size:46.06000137px;font-family:Lato-Bold, Lato;letter-spacing:0.02em;fill:#4a6fae"
       d="m 110.27646,359.98363 v 34.22258 h -5.68841 v -34.22258 z" />
    <path
       id="path1634"
       style="font-weight:700;font-size:46.06000137px;font-family:Lato-Bold, Lato;letter-spacing:0.02em;fill:#4a6fae"
       d="m 134.25069,394.20621 q -1.10544,0 -1.45089,-1.03635 l -0.4606,-2.27997 q -0.73696,0.82908 -1.54301,1.49695 -0.80605,0.66787 -1.75028,1.1515 -0.9212,0.48363 -2.00361,0.73696 -1.05938,0.27636 -2.303,0.27636 -1.93452,0 -3.54662,-0.80605 -1.6121,-0.80605 -2.78663,-2.32603 -1.1515,-1.54301 -1.79634,-3.79995 -0.62181,-2.25694 -0.62181,-5.15872 0,-2.62542 0.71393,-4.88236 0.71393,-2.25694 2.04967,-3.9151 1.33574,-1.65816 3.20117,-2.57936 1.86543,-0.94423 4.19146,-0.94423 1.98058,0 3.38541,0.64484 1.40483,0.62181 2.51027,1.68119 v -12.48226 h 5.68841 v 34.22258 z m -7.57687,-4.16843 q 1.77331,0 3.01693,-0.73696 1.24362,-0.73696 2.34906,-2.09573 v -10.5938 q -0.96726,-1.17453 -2.11876,-1.65816 -1.12847,-0.48363 -2.44118,-0.48363 -1.28968,0 -2.34906,0.48363 -1.03635,0.48363 -1.77331,1.47392 -0.71393,0.96726 -1.10544,2.48724 -0.39151,1.49695 -0.39151,3.54662 0,2.0727 0.32242,3.52359 0.34545,1.42786 0.96726,2.34906 0.62181,0.89817 1.51998,1.31271 0.89817,0.39151 2.00361,0.39151 z" />
    <path
       id="path1636"
       style="font-weight:700;font-size:46.06000137px;font-family:Lato-Bold, Lato;letter-spacing:0.02em;fill:#4a6fae"
       d="m 168.01266,386.35298 q 0.50666,0 0.87514,0.39151 l 2.44118,2.64845 q -2.02664,2.51027 -4.99751,3.84601 -2.94784,1.33574 -7.09324,1.33574 -3.70783,0 -6.6787,-1.26665 -2.94784,-1.26665 -5.04357,-3.52359 -2.09573,-2.25694 -3.2242,-5.38902 -1.10544,-3.13208 -1.10544,-6.83991 0,-3.75389 1.24362,-6.86294 1.24362,-3.13208 3.50056,-5.38902 2.25694,-2.25694 5.38902,-3.50056 3.15511,-1.26665 6.95506,-1.26665 3.70783,0 6.47143,1.19756 2.78663,1.17453 4.76721,3.13208 l -2.0727,2.87875 q -0.18424,0.27636 -0.48363,0.48363 -0.27636,0.20727 -0.78302,0.20727 -0.52969,0 -1.08241,-0.41454 -0.55272,-0.41454 -1.40483,-0.89817 -0.85211,-0.48363 -2.16482,-0.89817 -1.28968,-0.41454 -3.29329,-0.41454 -2.34906,0 -4.32964,0.82908 -1.95755,0.80605 -3.38541,2.32603 -1.40483,1.51998 -2.21088,3.70783 -0.78302,2.16482 -0.78302,4.88236 0,2.80966 0.78302,4.99751 0.80605,2.18785 2.16482,3.6848 1.35877,1.49695 3.20117,2.303 1.8424,0.78302 3.96116,0.78302 1.26665,0 2.27997,-0.13818 1.03635,-0.13818 1.88846,-0.43757 0.87514,-0.29939 1.63513,-0.75999 0.78302,-0.48363 1.54301,-1.17453 0.2303,-0.20727 0.48363,-0.32242 0.25333,-0.13818 0.55272,-0.13818 z" />
    <path
       id="path1638"
       style="font-weight:700;font-size:46.06000137px;font-family:Lato-Bold, Lato;letter-spacing:0.02em;fill:#4a6fae"
       d="m 182.65973,359.98363 v 34.22258 h -5.68841 v -34.22258 z" />
    <path
       id="path1640"
       style="font-weight:700;font-size:46.06000137px;font-family:Lato-Bold, Lato;letter-spacing:0.02em;fill:#4a6fae"
       d="m 200.09344,370.20895 q 2.64845,0 4.79024,0.85211 2.16482,0.85211 3.6848,2.41815 1.51998,1.56604 2.34906,3.82298 0.82908,2.25694 0.82908,5.04357 0,2.80966 -0.82908,5.0666 -0.82908,2.25694 -2.34906,3.84601 -1.51998,1.58907 -3.6848,2.44118 -2.14179,0.85211 -4.79024,0.85211 -2.64845,0 -4.81327,-0.85211 -2.16482,-0.85211 -3.70783,-2.44118 -1.51998,-1.58907 -2.37209,-3.84601 -0.82908,-2.25694 -0.82908,-5.0666 0,-2.78663 0.82908,-5.04357 0.85211,-2.25694 2.37209,-3.82298 1.54301,-1.56604 3.70783,-2.41815 2.16482,-0.85211 4.81327,-0.85211 z m 0,19.96701 q 2.94784,0 4.35267,-1.98058 1.42786,-1.98058 1.42786,-5.80356 0,-3.82298 -1.42786,-5.82659 -1.40483,-2.00361 -4.35267,-2.00361 -2.9939,0 -4.42176,2.02664 -1.42786,2.00361 -1.42786,5.80356 0,3.79995 1.42786,5.80356 1.42786,1.98058 4.42176,1.98058 z" />
    <path
       id="path1642"
       style="font-weight:700;font-size:46.06000137px;font-family:Lato-Bold, Lato;letter-spacing:0.02em;fill:#4a6fae"
       d="m 222.31733,370.57743 v 15.01556 q 0,2.16482 0.99029,3.36238 1.01332,1.17453 3.01693,1.17453 1.47392,0 2.7636,-0.64484 1.28968,-0.66787 2.44118,-1.81937 v -17.08826 h 5.68841 v 23.62878 h -3.47753 q -1.10544,0 -1.45089,-1.03635 l -0.39151,-1.88846 q -0.73696,0.73696 -1.51998,1.35877 -0.78302,0.59878 -1.68119,1.03635 -0.87514,0.41454 -1.91149,0.64484 -1.01332,0.25333 -2.18785,0.25333 -1.93452,0 -3.43147,-0.64484 -1.47392,-0.66787 -2.48724,-1.86543 -1.01332,-1.19756 -1.54301,-2.83269 -0.50666,-1.65816 -0.50666,-3.63874 v -15.01556 z" />
    <path
       id="path1644"
       style="font-weight:700;font-size:46.06000137px;font-family:Lato-Bold, Lato;letter-spacing:0.02em;fill:#4a6fae"
       d="m 260.84646,394.20621 q -1.10544,0 -1.45089,-1.03635 l -0.4606,-2.27997 q -0.73696,0.82908 -1.54301,1.49695 -0.80605,0.66787 -1.75028,1.1515 -0.9212,0.48363 -2.00361,0.73696 -1.05938,0.27636 -2.303,0.27636 -1.93452,0 -3.54662,-0.80605 -1.6121,-0.80605 -2.78663,-2.32603 -1.1515,-1.54301 -1.79634,-3.79995 -0.62181,-2.25694 -0.62181,-5.15872 0,-2.62542 0.71393,-4.88236 0.71393,-2.25694 2.04967,-3.9151 1.33574,-1.65816 3.20117,-2.57936 1.86543,-0.94423 4.19146,-0.94423 1.98058,0 3.38541,0.64484 1.40483,0.62181 2.51027,1.68119 v -12.48226 h 5.68841 v 34.22258 z m -7.57687,-4.16843 q 1.77331,0 3.01693,-0.73696 1.24362,-0.73696 2.34906,-2.09573 v -10.5938 q -0.96726,-1.17453 -2.11876,-1.65816 -1.12847,-0.48363 -2.44118,-0.48363 -1.28968,0 -2.34906,0.48363 -1.03635,0.48363 -1.77331,1.47392 -0.71393,0.96726 -1.10544,2.48724 -0.39151,1.49695 -0.39151,3.54662 0,2.0727 0.32242,3.52359 0.34545,1.42786 0.96726,2.34906 0.62181,0.89817 1.51998,1.31271 0.89817,0.39151 2.00361,0.39151 z" />
  </g>
  <path
     style="fill:#4a6fae"
     id="path922"
     d="m 125.28699,143.47621 a 11.92,11.92 0 1 0 -11.91,11.91 11.92,11.92 0 0 0 11.91,-11.91 z"
     class="cls-3" />
  <path
     style="fill:#4a6fae"
     id="path924"
     d="m 144.59699,143.47621 a 11.92,11.92 0 1 0 11.92,-11.92 11.92,11.92 0 0 0 -11.92,11.92 z"
     class="cls-3" />
  <path
     style="fill:#4a6fae"
     id="path926"
     d="m 47.41699,187.70621 a 94.53,94.53 0 0 0 14.4,24.52 95.82,95.82 0 0 0 72.67,34 98.34,98.34 0 0 0 68.63,-28.38 94.44,94.44 0 0 0 21.65,-36.62 3.2,3.2 0 0 0 -4.62,-3.75 53.57,53.57 0 1 1 -37.37,-99.099999 3.2,3.2 0 0 0 1,-5.86 93.5,93.5 0 0 0 -29.22,-11.58 c -3,-13.37 -7.53,-21.21 -11.6,-28.12 a 270.52,270.52 0 0 0 -15.44,-22.3 19.34,19.34 0 0 0 -8.47,-8.2299997 c -8,-4.12 -17.1,-2.52000002 -20.23,3.58 -3.13,6.0999997 0.85,14.3899997 8.89,18.5199997 0.47,0.24 0.94,0.46 1.42,0.66 v 0 a 20.41,20.41 0 0 0 5.52,1.48 37.81,37.81 0 0 1 13,7.71 c 4.28,3.96 12.28,17.71 13.28,24.86 -2,-0.12 -4,-0.19 -6,-0.19 q -4.23,0 -8.41,0.38 c -8,-10.49 -14.87,-17.78 -21.31,-23.15 -7,-5.81 -16.45,-12.32 -19.9,-14 v 0 a 19.68,19.68 0 0 0 -10.4,-2.83 c -9,0 -16.36,5.56 -16.36,12.42 0,6.86 7.38,12.43 16.38,12.43 a 22,22 0 0 0 3.94,-0.37 v 0 h 0.06 a 19,19 0 0 0 3.8,-1.11 18.56,18.56 0 0 1 8.56,0 c 5.64,1.55 22.23,13.7 20.8,19.08 a 93.75,93.75 0 0 0 -26,10.83 3.2,3.2 0 0 0 1,5.86 53.56,53.56 0 1 1 -37.36,99.099999 3.2,3.2 0 0 0 -4.76,2.58 q 1.06,3.84 2.45,7.58 z"
     class="cls-3" />
  <path
     style="fill:#4a6fae"
     id="path928"
     d="m 187.13699,316.45621 c -0.92,-0.15 -5.66,-0.27 -5.66,-0.27 -7.7,-0.93 -10,-19.08 -10.58,-25.61 a 59.64,59.64 0 0 0 11.82,-12.24 113.56,113.56 0 0 1 -95.09,0.63 59.55,59.55 0 0 0 11.37,11.61 c -0.58,6.53 -2.89,24.68 -10.59,25.61 0,0 -4.74,0.12 -5.65,0.27 -4.55,1 -7.83,4 -7.83,7.53 0,4.39 5.11,7.95 11.42,7.95 0,0 13.77,1.17 16.76,-1.35 2.99,-2.52 4.55,-4.73 4,-15.87 -0.55,-11.14 9.5,-14.18 9.82,-14.67 5.68,1.83 11.73,15.63 18,15.63 6.27,0 12.33,-13.8 18,-15.63 0.33,0.5 10.43,3.54 9.85,14.68 -0.58,11.14 1,13.35 4,15.87 3,2.52 16.77,1.35 16.77,1.35 6.3,0 11.41,-3.56 11.41,-7.95 -0.03,-3.52 -3.28,-6.5 -7.82,-7.54 z"
     class="cls-3" />
  <path
     style="fill:#4a6fae"
     id="path930"
     d="m 210.72699,256.20621 v 0 h -0.05 a 3.65,3.65 0 0 0 -0.54,-0.32 c -8.18,-5 -12.43,-10.24 -14.63,-14.15 a 100.89,100.89 0 0 1 -121.43,0.47 c -2.27,3.86 -6.5,8.9 -14.36,13.68 a 5.09,5.09 0 0 0 -0.54,0.32 h -0.05 v 0 a 8.71,8.71 0 1 0 13.08,9.6 c 0.76,-2.33 1.71,-5.55 3.08,-8.78 l 2.33,1.35 c 15.94,10 38.13,16.71 56.87,16.71 19.93,0 41.66,-7 58.09,-18.08 l 1.43,-1.23 a 88,88 0 0 1 3.65,10 8.71,8.71 0 1 0 13.07,-9.6 z"
     class="cls-3" />
</svg>
