<?xml version="1.0" encoding="UTF-8" standalone="no"?>
<svg
   xmlns:dc="http://purl.org/dc/elements/1.1/"
   xmlns:cc="http://creativecommons.org/ns#"
   xmlns:rdf="http://www.w3.org/1999/02/22-rdf-syntax-ns#"
   xmlns:svg="http://www.w3.org/2000/svg"
   xmlns="http://www.w3.org/2000/svg"
   height="332.21744"
   width="1881.5991"
   version="1.1"
   viewBox="0 0 1881.5991 332.21744"
   data-name="Ebene 1"
   id="Ebene_1">
  <metadata
     id="metadata935">
    <rdf:RDF>
      <cc:Work
         rdf:about="">
        <dc:format>image/svg+xml</dc:format>
        <dc:type
           rdf:resource="http://purl.org/dc/dcmitype/StillImage" />
        <dc:title></dc:title>
      </cc:Work>
    </rdf:RDF>
  </metadata>
  <defs
     id="defs916">
    <style
       id="style914">.cls-1{fill:#fff;}.cls-2{font-size:46.06px;font-family:Lato-Bold, Lato;font-weight:700;letter-spacing:0.02em;}.cls-2,.cls-3{fill:#4a6fae;}</style>
  </defs>
  <g
     id="text920"
     style="font-style:normal;font-variant:normal;font-weight:normal;font-stretch:normal;font-size:292.27236938px;font-family:lato;-inkscape-font-specification:lato;letter-spacing:0.02em;fill:#4a6fae;stroke-width:6.34547043"
     aria-label="QFieldCloud">
    <path
       id="path829"
       style="font-style:normal;font-variant:normal;font-weight:bold;font-stretch:normal;font-family:Lato;-inkscape-font-specification:Lato"
       d="m 413.8095,150.1462 q 0,14.17521 -2.92272,27.18133 -2.92273,12.85998 -8.4759,24.11247 -5.40704,11.25248 -13.29839,20.75134 -7.89136,9.35271 -17.97475,16.51338 l 53.63198,58.45448 h -32.44224 q -7.01453,0 -12.71385,-1.89977 -5.55317,-1.89977 -10.22953,-7.01454 l -30.98087,-34.19587 q -7.45295,2.04591 -15.3443,3.06886 -7.74522,1.02296 -16.22112,1.02296 -23.96633,0 -43.84085,-8.03749 -19.72839,-8.18363 -33.9036,-22.65111 -14.02907,-14.46748 -21.77429,-34.19587 -7.74522,-19.87452 -7.74522,-43.11017 0,-23.23566 7.74522,-42.96404 7.74522,-19.874523 21.77429,-34.342005 14.17521,-14.467482 33.9036,-22.504973 19.87452,-8.183626 43.84085,-8.183626 23.96634,0 43.69472,8.183626 19.72839,8.183627 33.75746,22.651109 14.02908,14.321346 21.77429,34.195869 7.74522,19.72838 7.74522,42.96404 z m -40.33359,0 q 0,-17.39021 -4.67635,-31.12701 -4.53023,-13.88294 -13.15226,-23.527927 -8.62204,-9.644988 -21.04361,-14.759754 -12.27544,-5.114767 -27.76588,-5.114767 -15.49043,0 -27.91201,5.114767 -12.42157,5.114766 -21.18974,14.759754 -8.62204,9.644987 -13.2984,23.527927 -4.67635,13.7368 -4.67635,31.12701 0,17.3902 4.67635,31.27314 4.67636,13.7368 13.2984,23.38179 8.76817,9.49885 21.18974,14.61362 12.42158,5.11476 27.91201,5.11476 15.49044,0 27.76588,-5.11476 12.42157,-5.11477 21.04361,-14.61362 8.62203,-9.64499 13.15226,-23.38179 4.67635,-13.88294 4.67635,-31.27314 z" />
    <path
       id="path831"
       style="font-style:normal;font-variant:normal;font-weight:bold;font-stretch:normal;font-family:Lato;-inkscape-font-specification:Lato"
       d="m 583.91187,44.489735 v 31.273144 h -93.67329 v 62.546291 h 79.05967 v 31.41928 h -79.05967 v 86.07421 H 450.63567 V 44.489735 Z" />
    <path
       id="path833"
       style="font-style:normal;font-variant:normal;font-weight:bold;font-stretch:normal;font-family:Lato;-inkscape-font-specification:Lato"
       d="M 656.97958,105.86693 V 255.80266 H 620.88394 V 105.86693 Z m 5.40703,-43.694717 q 0,4.676358 -1.89977,8.768171 -1.89977,4.091814 -5.11476,7.160673 -3.06886,3.06886 -7.30681,4.968631 -4.23795,1.753634 -9.06044,1.753634 -4.67636,0 -8.91431,-1.753634 -4.09182,-1.899771 -7.16067,-4.968631 -3.06886,-3.068859 -4.96864,-7.160673 -1.75363,-4.091813 -1.75363,-8.768171 0,-4.822494 1.75363,-9.060443 1.89978,-4.237949 4.96864,-7.306809 3.06885,-3.06886 7.16067,-4.822494 4.23795,-1.899771 8.91431,-1.899771 4.82249,0 9.06044,1.899771 4.23795,1.753634 7.30681,4.822494 3.21499,3.06886 5.11476,7.306809 1.89977,4.237949 1.89977,9.060443 z" />
    <path
       id="path835"
       style="font-style:normal;font-variant:normal;font-weight:bold;font-stretch:normal;font-family:Lato;-inkscape-font-specification:Lato"
       d="m 765.55874,103.52875 q 14.17521,0 26.01224,4.53023 11.98317,4.53022 20.6052,13.29839 8.62204,8.62203 13.44453,21.33588 4.8225,12.56771 4.8225,28.78883 0,4.09181 -0.43841,6.8684 -0.29227,2.63045 -1.31523,4.23795 -0.87681,1.46136 -2.48431,2.19204 -1.6075,0.58455 -4.09182,0.58455 H 729.4631 q 1.6075,23.08951 12.42158,33.90359 10.81408,10.81408 28.64269,10.81408 8.76817,0 15.05203,-2.04591 6.42999,-2.0459 11.10635,-4.53022 4.82249,-2.48431 8.32976,-4.53022 3.65341,-2.04591 7.01454,-2.04591 2.19204,0 3.79954,0.87682 1.6075,0.87682 2.77659,2.48432 l 10.5218,13.15225 q -5.99158,7.01454 -13.44453,11.83703 -7.45294,4.67636 -15.63657,7.59908 -8.03749,2.77659 -16.51339,3.94568 -8.32976,1.16909 -16.22112,1.16909 -15.63657,0 -29.0811,-5.11477 -13.44452,-5.2609 -23.38179,-15.3443 -9.93726,-10.22953 -15.63657,-25.13542 -5.69931,-15.05203 -5.69931,-34.78041 0,-15.3443 4.96863,-28.78883 4.96863,-13.59066 14.17521,-23.52792 9.35272,-10.0834 22.65111,-15.92885 13.44453,-5.84545 30.25019,-5.84545 z m 0.73068,25.86611 q -15.78271,0 -24.69701,8.91431 -8.91431,8.9143 -11.39863,25.28156 h 67.80719 q 0,-7.01454 -1.89977,-13.15226 -1.89977,-6.28386 -5.84544,-10.96021 -3.94568,-4.67636 -9.93726,-7.30681 -5.99159,-2.77659 -14.02908,-2.77659 z" />
    <path
       id="path837"
       style="font-style:normal;font-variant:normal;font-weight:bold;font-stretch:normal;font-family:Lato;-inkscape-font-specification:Lato"
       d="M 904.09533,38.644288 V 255.80266 H 867.99969 V 38.644288 Z" />
    <path
       id="path839"
       style="font-style:normal;font-variant:normal;font-weight:bold;font-stretch:normal;font-family:Lato;-inkscape-font-specification:Lato"
       d="m 1056.223,255.80266 q -7.0145,0 -9.2065,-6.57613 l -2.9228,-14.46748 q -4.6763,5.2609 -9.7911,9.49885 -5.1147,4.23795 -11.1063,7.30681 -5.8455,3.06886 -12.7139,4.67636 -6.7222,1.75363 -14.6136,1.75363 -12.27544,0 -22.50497,-5.11477 -10.22953,-5.11476 -17.68248,-14.75975 -7.30681,-9.79112 -11.39862,-24.11247 -3.94568,-14.32135 -3.94568,-32.73451 0,-16.65952 4.53022,-30.98087 4.53023,-14.32134 13.00612,-24.84315 8.4759,-10.5218 20.31293,-16.36725 11.83703,-5.99158 26.59678,-5.99158 12.5677,0 21.482,4.09181 8.9143,3.94568 15.9289,10.66794 V 38.644288 h 36.0956 V 255.80266 Z m -48.0788,-26.45065 q 11.2525,0 19.1439,-4.67636 7.8913,-4.67636 14.9059,-13.29839 v -67.22265 q -6.1377,-7.45294 -13.4446,-10.5218 -7.1606,-3.06886 -15.4904,-3.06886 -8.1836,0 -14.90588,3.06886 -6.57613,3.06886 -11.25249,9.35271 -4.53022,6.13772 -7.01454,15.78271 -2.48431,9.49885 -2.48431,22.50497 0,13.15226 2.04591,22.35884 2.19204,9.06044 6.13772,14.90589 3.94567,5.69931 9.64498,8.32976 5.69931,2.48432 12.71381,2.48432 z" />
    <path
       id="path841"
       style="font-style:normal;font-variant:normal;font-weight:bold;font-stretch:normal;font-family:Lato;-inkscape-font-specification:Lato"
       d="m 1270.4586,205.97022 q 3.215,0 5.5532,2.48431 l 15.4904,16.80567 q -12.86,15.92884 -31.7115,24.40474 -18.7055,8.4759 -45.01,8.4759 -23.5279,0 -42.3795,-8.03749 -18.7054,-8.03749 -32.0038,-22.35884 -13.2984,-14.32135 -20.4591,-34.19587 -7.0145,-19.87452 -7.0145,-43.40244 0,-23.8202 7.8914,-43.54859 7.8913,-19.874518 22.2127,-34.195864 14.3213,-14.321346 34.1958,-22.2127 20.0207,-8.03749 44.1332,-8.03749 23.5279,0 41.0642,7.599082 17.6825,7.452945 30.2502,19.874521 l -13.1522,18.267023 q -1.1691,1.753634 -3.0689,3.06886 -1.7536,1.315225 -4.9686,1.315225 -3.3612,0 -6.8684,-2.630451 -3.5073,-2.630451 -8.9143,-5.699311 -5.4071,-3.06886 -13.7368,-5.699311 -8.1837,-2.630452 -20.8975,-2.630452 -14.9059,0 -27.4736,5.260903 -12.4216,5.114766 -21.482,14.759755 -8.9144,9.64499 -14.0291,23.52793 -4.9686,13.7368 -4.9686,30.98087 0,17.82861 4.9686,31.71155 5.1147,13.88294 13.7368,23.38179 8.622,9.49885 20.3129,14.61362 11.6909,4.96863 25.1354,4.96863 8.0375,0 14.4675,-0.87682 6.5761,-0.87682 11.9832,-2.77659 5.5532,-1.89977 10.3757,-4.82249 4.9686,-3.06886 9.7911,-7.45295 1.4613,-1.31522 3.0688,-2.0459 1.6075,-0.87682 3.5073,-0.87682 z" />
    <path
       id="path843"
       style="font-style:normal;font-variant:normal;font-weight:bold;font-stretch:normal;font-family:Lato;-inkscape-font-specification:Lato"
       d="M 1363.4012,38.644288 V 255.80266 h -36.0957 V 38.644288 Z" />
    <path
       id="path845"
       style="font-style:normal;font-variant:normal;font-weight:bold;font-stretch:normal;font-family:Lato;-inkscape-font-specification:Lato"
       d="m 1474.0263,103.52875 q 16.8056,0 30.3963,5.40704 13.7368,5.40704 23.3818,15.3443 9.645,9.93726 14.9059,24.25861 5.2609,14.32134 5.2609,32.00382 0,17.82862 -5.2609,32.14996 -5.2609,14.32135 -14.9059,24.40475 -9.645,10.08339 -23.3818,15.49043 -13.5907,5.40704 -30.3963,5.40704 -16.8057,0 -30.5425,-5.40704 -13.7368,-5.40704 -23.5279,-15.49043 -9.645,-10.0834 -15.052,-24.40475 -5.2609,-14.32134 -5.2609,-32.14996 0,-17.68248 5.2609,-32.00382 5.407,-14.32135 15.052,-24.25861 9.7911,-9.93726 23.5279,-15.3443 13.7368,-5.40704 30.5425,-5.40704 z m 0,126.70008 q 18.7054,0 27.6197,-12.56772 9.0605,-12.56771 9.0605,-36.82631 0,-24.25861 -9.0605,-36.97246 -8.9143,-12.71385 -27.6197,-12.71385 -18.9977,0 -28.0582,12.85999 -9.0604,12.71384 -9.0604,36.82632 0,24.11247 9.0604,36.82631 9.0605,12.56772 28.0582,12.56772 z" />
    <path
       id="path847"
       style="font-style:normal;font-variant:normal;font-weight:bold;font-stretch:normal;font-family:Lato;-inkscape-font-specification:Lato"
       d="m 1615.0472,105.86693 v 95.2808 q 0,13.7368 6.2839,21.33588 6.43,7.45294 19.1438,7.45294 9.3528,0 17.5364,-4.09181 8.1836,-4.23795 15.4904,-11.54476 V 105.86693 h 36.0956 v 149.93573 h -22.0665 q -7.0146,0 -9.2066,-6.57613 l -2.4843,-11.98317 q -4.6764,4.67636 -9.645,8.62204 -4.9686,3.79954 -10.6679,6.57613 -5.5532,2.63045 -12.1293,4.09181 -6.43,1.6075 -13.883,1.6075 -12.2754,0 -21.7743,-4.09182 -9.3527,-4.23795 -15.7827,-11.83703 -6.43,-7.59908 -9.7911,-17.97475 -3.215,-10.5218 -3.215,-23.08951 v -95.2808 z" />
    <path
       id="path849"
       style="font-style:normal;font-variant:normal;font-weight:bold;font-stretch:normal;font-family:Lato;-inkscape-font-specification:Lato"
       d="m 1859.5326,255.80266 q -7.0145,0 -9.2066,-6.57613 l -2.9227,-14.46748 q -4.6763,5.2609 -9.7911,9.49885 -5.1148,4.23795 -11.1064,7.30681 -5.8454,3.06886 -12.7138,4.67636 -6.7223,1.75363 -14.6136,1.75363 -12.2755,0 -22.505,-5.11477 -10.2295,-5.11476 -17.6825,-14.75975 -7.3068,-9.79112 -11.3986,-24.11247 -3.9457,-14.32135 -3.9457,-32.73451 0,-16.65952 4.5302,-30.98087 4.5303,-14.32134 13.0062,-24.84315 8.4759,-10.5218 20.3129,-16.36725 11.837,-5.99158 26.5968,-5.99158 12.5677,0 21.482,4.09181 8.9143,3.94568 15.9288,10.66794 V 38.644288 h 36.0957 V 255.80266 Z m -48.0788,-26.45065 q 11.2525,0 19.1439,-4.67636 7.8913,-4.67636 14.9058,-13.29839 v -67.22265 q -6.1377,-7.45294 -13.4445,-10.5218 -7.1607,-3.06886 -15.4904,-3.06886 -8.1836,0 -14.9059,3.06886 -6.5761,3.06886 -11.2525,9.35271 -4.5302,6.13772 -7.0145,15.78271 -2.4844,9.49885 -2.4844,22.50497 0,13.15226 2.046,22.35884 2.192,9.06044 6.1377,14.90589 3.9457,5.69931 9.645,8.32976 5.6993,2.48432 12.7138,2.48432 z" />
  </g>
  <g
     transform="translate(-199.36,-53.263789)"
     id="g1069">
    <path
       style="fill:#4a6fae"
       class="cls-3"
       d="m 291.36,249.43 a 11.92,11.92 0 1 0 -11.91,11.91 11.92,11.92 0 0 0 11.91,-11.91 z"
       id="path922"
       transform="translate(-11.68,-52.69)" />
    <path
       style="fill:#4a6fae"
       class="cls-3"
       d="m 310.67,249.43 a 11.92,11.92 0 1 0 11.92,-11.92 11.92,11.92 0 0 0 -11.92,11.92 z"
       id="path924"
       transform="translate(-11.68,-52.69)" />
    <path
       style="fill:#4a6fae"
       class="cls-3"
       d="m 213.49,293.66 a 94.53,94.53 0 0 0 14.4,24.52 95.82,95.82 0 0 0 72.67,34 98.34,98.34 0 0 0 68.63,-28.38 94.44,94.44 0 0 0 21.65,-36.62 3.2,3.2 0 0 0 -4.62,-3.75 53.57,53.57 0 1 1 -37.37,-99.1 3.2,3.2 0 0 0 1,-5.86 93.5,93.5 0 0 0 -29.22,-11.58 c -3,-13.37 -7.53,-21.21 -11.6,-28.12 a 270.52,270.52 0 0 0 -15.44,-22.3 19.34,19.34 0 0 0 -8.47,-8.23 c -8,-4.12 -17.1,-2.52 -20.23,3.58 -3.13,6.1 0.85,14.39 8.89,18.52 0.47,0.24 0.94,0.46 1.42,0.66 v 0 a 20.41,20.41 0 0 0 5.52,1.48 37.81,37.81 0 0 1 13,7.71 c 4.28,3.96 12.28,17.71 13.28,24.86 -2,-0.12 -4,-0.19 -6,-0.19 q -4.23,0 -8.41,0.38 c -8,-10.49 -14.87,-17.78 -21.31,-23.15 -7,-5.81 -16.45,-12.32 -19.9,-14 v 0 a 19.68,19.68 0 0 0 -10.4,-2.83 c -9,0 -16.36,5.56 -16.36,12.42 0,6.86 7.38,12.43 16.38,12.43 a 22,22 0 0 0 3.94,-0.37 v 0 H 245 a 19,19 0 0 0 3.8,-1.11 18.56,18.56 0 0 1 8.56,0 c 5.64,1.55 22.23,13.7 20.8,19.08 a 93.75,93.75 0 0 0 -26,10.83 3.2,3.2 0 0 0 1,5.86 53.56,53.56 0 1 1 -37.36,99.1 3.2,3.2 0 0 0 -4.76,2.58 q 1.06,3.84 2.45,7.58 z"
       id="path926"
       transform="translate(-11.68,-52.69)" />
    <path
       style="fill:#4a6fae"
       class="cls-3"
       d="m 353.21,422.41 c -0.92,-0.15 -5.66,-0.27 -5.66,-0.27 -7.7,-0.93 -10,-19.08 -10.58,-25.61 a 59.64,59.64 0 0 0 11.82,-12.24 113.56,113.56 0 0 1 -95.09,0.63 59.55,59.55 0 0 0 11.37,11.61 c -0.58,6.53 -2.89,24.68 -10.59,25.61 0,0 -4.74,0.12 -5.65,0.27 -4.55,1 -7.83,4 -7.83,7.53 0,4.39 5.11,7.95 11.42,7.95 0,0 13.77,1.17 16.76,-1.35 2.99,-2.52 4.55,-4.73 4,-15.87 -0.55,-11.14 9.5,-14.18 9.82,-14.67 5.68,1.83 11.73,15.63 18,15.63 6.27,0 12.33,-13.8 18,-15.63 0.33,0.5 10.43,3.54 9.85,14.68 -0.58,11.14 1,13.35 4,15.87 3,2.52 16.77,1.35 16.77,1.35 6.3,0 11.41,-3.56 11.41,-7.95 -0.03,-3.52 -3.28,-6.5 -7.82,-7.54 z"
       id="path928"
       transform="translate(-11.68,-52.69)" />
    <path
       style="fill:#4a6fae"
       class="cls-3"
       d="m 376.8,362.16 v 0 h -0.05 a 3.65,3.65 0 0 0 -0.54,-0.32 c -8.18,-5 -12.43,-10.24 -14.63,-14.15 a 100.89,100.89 0 0 1 -121.43,0.47 c -2.27,3.86 -6.5,8.9 -14.36,13.68 a 5.09,5.09 0 0 0 -0.54,0.32 h -0.05 v 0 a 8.71,8.71 0 1 0 13.08,9.6 c 0.76,-2.33 1.71,-5.55 3.08,-8.78 l 2.33,1.35 c 15.94,10 38.13,16.71 56.87,16.71 19.93,0 41.66,-7 58.09,-18.08 l 1.43,-1.23 a 88,88 0 0 1 3.65,10 8.71,8.71 0 1 0 13.07,-9.6 z"
       id="path930"
       transform="translate(-11.68,-52.69)" />
  </g>
</svg>
