<?xml version="1.0" encoding="UTF-8" standalone="no"?>
<svg
   height="332.21744"
   width="179.94847"
   version="1.1"
   viewBox="0 0 179.94847 332.21744"
   data-name="Ebene 1"
   id="Ebene_1"
   sodipodi:docname="sad_nyuky.svg"
   inkscape:export-filename="lsad_nyuki.png"
   inkscape:export-xdpi="72"
   inkscape:export-ydpi="72"
   inkscape:version="1.2.2 (b0a8486541, 2022-12-01)"
   xmlns:inkscape="http://www.inkscape.org/namespaces/inkscape"
   xmlns:sodipodi="http://sodipodi.sourceforge.net/DTD/sodipodi-0.dtd"
   xmlns="http://www.w3.org/2000/svg"
   xmlns:svg="http://www.w3.org/2000/svg"
   xmlns:rdf="http://www.w3.org/1999/02/22-rdf-syntax-ns#"
   xmlns:cc="http://creativecommons.org/ns#"
   xmlns:dc="http://purl.org/dc/elements/1.1/">
  <sodipodi:namedview
     id="namedview24"
     pagecolor="#505050"
     bordercolor="#eeeeee"
     borderopacity="1"
     inkscape:showpageshadow="0"
     inkscape:pageopacity="0"
     inkscape:pagecheckerboard="0"
     inkscape:deskcolor="#505050"
     showgrid="false"
     inkscape:zoom="2.8737216"
     inkscape:cx="301.69937"
     inkscape:cy="184.95181"
     inkscape:window-width="3440"
     inkscape:window-height="1376"
     inkscape:window-x="0"
     inkscape:window-y="0"
     inkscape:window-maximized="1"
     inkscape:current-layer="g1069" />
  <metadata
     id="metadata935">
    <rdf:RDF>
      <cc:Work
         rdf:about="">
        <dc:format>image/svg+xml</dc:format>
        <dc:type
           rdf:resource="http://purl.org/dc/dcmitype/StillImage" />
      </cc:Work>
    </rdf:RDF>
  </metadata>
  <defs
     id="defs916">
    <style
       id="style914">.cls-1{fill:#fff;}.cls-2{font-size:46.06px;font-family:Lato-Bold, Lato;font-weight:700;letter-spacing:0.02em;}.cls-2,.cls-3{fill:#4a6fae;}</style>
  </defs>
  <g
     transform="translate(-199.36,-53.26379)"
     id="g1069">
    <path
       style="fill:#4a6fae"
       class="cls-3"
       d="m 291.36,249.43 a 11.92,11.92 0 1 0 -11.91,11.91 11.92,11.92 0 0 0 11.91,-11.91 z"
       id="path922"
       transform="translate(-11.68,-52.69)" />
    <path
       style="fill:#4a6fae"
       class="cls-3"
       d="m 310.67,249.43 a 11.92,11.92 0 1 0 11.92,-11.92 11.92,11.92 0 0 0 -11.92,11.92 z"
       id="path924"
       transform="translate(-11.68,-52.69)" />
    <path
       id="path926"
       style="fill:#4a6fae"
       class="cls-3"
       d="m 276.02828,105.95379 c -4.89423,-9.8e-4 -9.18242,2.05469 -11.13867,5.86719 -3.13,6.09999 0.85063,14.38953 8.89062,18.51953 0.47,0.24 0.93993,0.46015 1.41993,0.66015 a 20.41,20.41 0 0 0 5.51953,1.47852 37.81,37.81 0 0 1 13,7.71094 c 4.27999,3.95999 12.28125,17.70938 13.28125,24.85937 -2,-0.12 -4,-0.18945 -6,-0.18945 -2.82,0 -5.62349,0.12753 -8.41016,0.38086 -7.99999,-10.48999 -14.87055,-17.7804 -21.31055,-23.15039 -6.99999,-5.81 -16.45039,-12.32 -19.90039,-14 a 19.68,19.68 0 0 0 -10.40039,-2.83008 c -8.99999,0 -16.35937,5.55993 -16.35937,12.41992 0,6.85999 7.38087,12.42969 16.38086,12.42969 a 22,22 0 0 0 3.93945,-0.36914 h 0.0606 a 19,19 0 0 0 3.79883,-1.11133 18.56,18.56 0 0 1 8.56054,0 c 5.64,1.55 22.22883,13.70008 20.79883,19.08008 a 93.75,93.75 0 0 0 -26,10.83008 3.2,3.2 0 0 0 1,5.85937 53.56,53.56 0 1 1 -37.35937,99.10156 3.2,3.2 0 0 0 -4.75977,2.58008 c 0.70667,2.56 1.52255,5.08675 2.44922,7.58008 a 94.53,94.53 0 0 0 14.40039,24.51953 95.82,95.82 0 0 0 72.66992,34 98.34,98.34 0 0 0 68.63086,-28.38086 94.44,94.44 0 0 0 21.65039,-36.61914 3.2,3.2 0 0 0 -4.62109,-3.75 53.57,53.57 0 1 1 -37.36914,-99.09961 3.2,3.2 0 0 0 1,-5.86133 93.5,93.5 0 0 0 -29.22071,-11.58007 c -2.99999,-13.36999 -7.52961,-21.20915 -11.59961,-28.11914 a 270.52,270.52 0 0 0 -15.43945,-22.30079 19.34,19.34 0 0 0 -8.4707,-8.22851 c -3,-1.545 -6.15526,-2.28653 -9.0918,-2.28711 z m 22.7832,205.71289 c 7.54528,0 15.77198,2.65094 21.99219,6.8457 l 0.54102,0.46485 c 0.68156,5.58941 0.22491,0.83114 0.56836,5.3164 -13.56886,-10.307 -32.32442,-10.37939 -45.97266,-0.17773 1.61392,-6.71328 1.1566,-6.01574 1.3418,-6.12305 6.0347,-3.78588 14.43454,-6.32617 21.52929,-6.32617 z"
       transform="translate(-11.68,-52.69)" />
    <path
       style="fill:#4a6fae"
       class="cls-3"
       d="m 353.21,422.41 c -0.92,-0.15 -5.66,-0.27 -5.66,-0.27 -7.7,-0.93 -10,-19.08 -10.58,-25.61 a 59.64,59.64 0 0 0 11.82,-12.24 113.56,113.56 0 0 1 -95.09,0.63 59.55,59.55 0 0 0 11.37,11.61 c -0.58,6.53 -2.89,24.68 -10.59,25.61 0,0 -4.74,0.12 -5.65,0.27 -4.55,1 -7.83,4 -7.83,7.53 0,4.39 5.11,7.95 11.42,7.95 0,0 13.77,1.17 16.76,-1.35 2.99,-2.52 4.55,-4.73 4,-15.87 -0.55,-11.14 9.5,-14.18 9.82,-14.67 5.68,1.83 11.73,15.63 18,15.63 6.27,0 12.33,-13.8 18,-15.63 0.33,0.5 10.43,3.54 9.85,14.68 -0.58,11.14 1,13.35 4,15.87 3,2.52 16.77,1.35 16.77,1.35 6.3,0 11.41,-3.56 11.41,-7.95 -0.03,-3.52 -3.28,-6.5 -7.82,-7.54 z"
       id="path928"
       transform="translate(-11.68,-52.69)" />
    <path
       style="fill:#4a6fae"
       class="cls-3"
       d="m 376.8,362.16 v 0 h -0.05 c -0.17048,-0.12197 -0.35115,-0.22904 -0.54,-0.32 -8.18,-5 -12.43,-10.24 -14.63,-14.15 -35.84062,27.22481 -85.37971,27.41655 -121.43,0.47 -2.27,3.86 -6.5,8.9 -14.36,13.68 -0.18641,0.0955 -0.36675,0.20233 -0.54,0.32 h -0.05 v 0 c -5.17926,3.28387 -5.43337,10.7492 -0.48952,14.37772 4.94385,3.62851 11.98956,1.14784 13.56952,-4.77772 0.76,-2.33 1.71,-5.55 3.08,-8.78 l 2.33,1.35 c 15.94,10 38.13,16.71 56.87,16.71 19.93,0 41.66,-7 58.09,-18.08 l 1.43,-1.23 c 1.41735,3.25662 2.63625,6.59606 3.65,10 1.57581,5.93154 8.62778,8.41656 13.5741,4.78345 4.94633,-3.63311 4.6845,-11.10553 -0.5041,-14.38345 z"
       id="path930"
       transform="translate(-11.68,-52.69)"
       sodipodi:nodetypes="cccccccccsscccscccscc" />
  </g>
</svg>
